<?xml version="1.0" encoding="utf-8"?>
<!-- Generator: Adobe Illustrator 16.0.0, SVG Export Plug-In . SVG Version: 6.00 Build 0)  -->
<!DOCTYPE svg PUBLIC "-//W3C//DTD SVG 1.1//EN" "http://www.w3.org/Graphics/SVG/1.1/DTD/svg11.dtd">
<svg version="1.1" id="Layer_1" xmlns="http://www.w3.org/2000/svg" xmlns:xlink="http://www.w3.org/1999/xlink" x="0px" y="0px"
	 width="113.088px" height="200px" viewBox="86.912 -43.456 113.088 200" enable-background="new 86.912 -43.456 113.088 200"
	 xml:space="preserve">
<polyline fill="#010202" points="126.662,31.422 126.662,20.562 164.292,27.879 164.292,38.736 126.662,31.422 "/>
<path fill="#010202" d="M126.662,8.083c1.262-0.029,2.578,0.118,3.894,0.371c-3.235-2.82-4.442-6.185-4.442-10.022
	c0-5.212,2.855-9.211,8.449-8.122c4.445,0.862,7.404,4.896,8.613,9.024c1.095,3.777,1.536,7.649,1.756,11.367l0.216,0.042
	c2.525,0.493,3.512,0.024,3.512-2.606c0-2.142-0.946-4.292-3.307-5.08l-0.008-8.331c7.289,1.524,9.896,8.331,9.896,15.019
	c0,3.292-0.435,7.43-2.412,9.788c-2.578,3.178-6.2,2.03-10.202,1.255l-9.82-1.908c-2.085-0.406-4.171-0.756-6.146-0.319V8.083
	 M139.771,9.698c-0.273-2.687-1.098-7.233-4.498-7.896c-1.809-0.352-2.576,0.65-2.576,2.352c0,4.112,3.456,4.84,6.527,5.437
	L139.771,9.698z"/>
<path fill="#E31837" d="M142.264,42.113c-2.657-0.512-5.336-1.03-5.336-1.03l-0.221-0.042c-1.563-0.307-3.041-0.656-4.403-0.602
	c-0.13,0.005-0.234-0.022-0.255-0.145c0.074-0.017,0.149-0.026,0.224-0.04c-0.005,0-0.011,0-0.013,0
	c3.396-0.646,6.9-0.988,10.487-0.988c1.623,0,3.229,0.071,4.815,0.208V43.4L142.264,42.113 M135.274,89.737
	c-1.81-0.355-2.578,0.648-2.578,2.35c0,4.115,3.456,4.84,6.527,5.438l0.551,0.108C139.498,94.947,138.676,90.396,135.274,89.737z
	 M130.002,40.856c-0.111,0.011-0.248,0.056-0.47,0.144c-0.192,0.104-0.382,0.227-0.563,0.36c-2.307,1.695-3.238,4.311-2.855,7.292
	l0.825,6.577l7.84,1.524c-0.271-1.095-0.493-2.181-0.493-3.223c0-2.578,1.592-2.051,3.623-1.654l9.654,1.879v5.483l7.134,1.387
	v-5.597l9.602,1.824v-9.238l-9.602-2.398V40.55c25.093,5.473,43.89,27.817,43.89,54.552c0,26.741-18.802,49.093-43.904,54.558
	c0.39-1.139,0.562-2.408,0.562-3.633c0-3.4-1.316-6.895-4.498-8.831v-0.104l3.951,0.764v-10.258l-28.033-5.446v10.858l16.182,3.146
	c2.304,0.448,4.882,1.224,4.882,4.242c0,2.358-2.356,1.899-4.06,1.571l-17.004-3.308v9.927
	c-22.996-6.908-39.752-28.237-39.752-53.484c0-26.041,17.83-47.922,41.95-54.096c0.556-0.166,1.078-0.324,1.292-0.398
	C130.179,40.72,130.115,40.821,130.002,40.856z M157.38,114.442v10.861l7.461,1.451v-10.862L157.38,114.442z M145.369,77.679
	c0,0.715,0,1.373-0.017,2.236l9.778,1.91l0.111-1.46c0.329-4.271-2.413-6.831-6.31-8.522v-0.11l5.763,1.12v-9.27l-28.033-5.449
	v10.861l12.18,2.367c1.645,0.318,3.453,0.672,4.824,1.705C145.258,74.257,145.369,75.927,145.369,77.679z M132.808,106.811
	l9.817,1.907c4.004,0.779,7.626,1.92,10.205-1.252c1.972-2.358,2.413-6.498,2.413-9.791c0-6.686-2.607-13.491-9.896-15.017
	l0.008,8.331c2.356,0.788,3.307,2.939,3.307,5.08c0,2.631-0.986,3.098-3.512,2.607l-0.216-0.043
	c-0.223-3.717-0.661-7.59-1.758-11.367c-1.208-4.129-4.168-8.162-8.61-9.026c-5.594-1.086-8.448,2.91-8.448,8.125
	c0,3.838,1.207,7.199,4.444,10.022c-1.317-0.256-2.634-0.403-3.896-0.375v10.479C128.64,106.056,130.722,106.404,132.808,106.811z
	 M126.662,119.333l28.033,5.448v-10.86l-28.033-5.449V119.333z"/>
<path fill="#010202" d="M164.841-21.248c0-11.848-8.995-18.811-19.856-20.921c-10.695-2.08-18.871,2.257-18.871,13.556
	c0,8.668,5.598,16.062,14.948,18.749v-10.588c-3.578-1.163-6.282-3.108-6.282-6.422c0-5.209,6.422-4.182,10.205-3.448
	c3.564,0.692,11.41,2.438,11.41,7.54c0,3.647-3.512,4.255-7.334,3.601v10.703l0.696,0.119v0.032
	C159.138-7.273,164.841-11.65,164.841-21.248"/>
<path fill="#E31837" d="M123.527,148.689c2.111,0,3.667,1.711,3.667,3.733c0,2-1.556,3.711-3.667,3.711
	c-2.125,0-3.68-1.711-3.68-3.711C119.848,150.4,121.402,148.689,123.527,148.689 M120.459,152.423c0,1.662,1.302,2.972,3.068,2.972
	c1.743,0,3.055-1.31,3.055-2.972c0-1.682-1.312-2.994-3.055-2.994C121.761,149.427,120.459,150.741,120.459,152.423z
	 M121.402,151.646v-0.645h4.236v1.616c0,1.002-0.369,1.494-1.205,1.494c-0.76,0-1.089-0.476-1.168-1.099l-1.864,1.207v-0.724
	l1.835-1.114v-0.737L121.402,151.646L121.402,151.646z M123.783,152.412c0,0.546,0.037,1.031,0.69,1.031
	c0.524,0,0.62-0.478,0.62-0.923v-0.875h-1.311V152.412z"/>
</svg>
